<?xml version="1.0" encoding="UTF-8" standalone="no"?>
<!-- Created with Inkscape (http://www.inkscape.org/) -->

<svg
   width="193mm"
   height="193mm"
   viewBox="0 0 193 193"
   version="1.1"
   id="svg1985"
   xml:space="preserve"
   inkscape:version="1.2.2 (b0a8486541, 2022-12-01)"
   sodipodi:docname="logo.svg"
   inkscape:export-filename="logo.png"
   inkscape:export-xdpi="300"
   inkscape:export-ydpi="300"
   xmlns:inkscape="http://www.inkscape.org/namespaces/inkscape"
   xmlns:sodipodi="http://sodipodi.sourceforge.net/DTD/sodipodi-0.dtd"
   xmlns="http://www.w3.org/2000/svg"
   xmlns:svg="http://www.w3.org/2000/svg"><sodipodi:namedview
     id="namedview1987"
     pagecolor="#ffffff"
     bordercolor="#666666"
     borderopacity="1.0"
     inkscape:showpageshadow="2"
     inkscape:pageopacity="0.0"
     inkscape:pagecheckerboard="0"
     inkscape:deskcolor="#d1d1d1"
     inkscape:document-units="mm"
     showgrid="false"
     inkscape:zoom="0.78038721"
     inkscape:cx="60.226513"
     inkscape:cy="440.16611"
     inkscape:window-width="1920"
     inkscape:window-height="1016"
     inkscape:window-x="0"
     inkscape:window-y="27"
     inkscape:window-maximized="1"
     inkscape:current-layer="layer1" /><defs
     id="defs1982" /><g
     inkscape:label="Capa 1"
     inkscape:groupmode="layer"
     id="layer1"><path
       style="fill:#444444;stroke-width:0.264583"
       d="M 194.05557,97.206252 V -0.16041467 H 96.688903 c -64.734723,0 -97.3666661,-0.0886738 -97.3666661,-0.26458333 0,-0.17591087 32.7201391,-0.26458334 97.6312491,-0.26458334 H 194.58473 V 96.941669 c 0,64.911101 -0.0887,97.631241 -0.26458,97.631241 -0.17591,0 -0.26458,-32.63194 -0.26458,-97.366658 z"
       id="path2029" /><g
       id="g2225"
       transform="translate(-0.03020477,-0.82395885)"><path
         style="fill:#fefefe;stroke-width:0.264583"
         d="m 30.192706,176.5073 v -6.08542 h -6.085417 -6.085417 v -6.08542 -6.08542 H 11.936455 5.8510383 v -18.25625 -18.25625 h 6.0854167 6.085417 v -6.08541 -6.08542 h 6.085417 6.085417 v -6.08542 -6.085413 H 60.61979 91.046875 v 6.085413 6.08542 H 66.705207 42.36354 v 6.08542 6.08541 h -6.085417 -6.085417 v 18.25625 18.25625 h 6.085417 6.085417 v 6.08542 6.08542 H 54.534373 66.705207 V 158.25104 146.08021 H 60.61979 54.534373 v -6.08542 -6.08541 h 18.256251 18.256251 v 24.34166 24.34167 H 60.61979 30.192706 Z m 73.025004,-24.34167 v -30.42709 h 36.5125 36.5125 v 6.08542 6.08542 h 6.08542 6.08541 v 24.34166 24.34167 h -12.17083 -12.17083 v -24.34167 -24.34166 h -6.08542 -6.08542 v 24.34166 24.34167 h -12.17083 -12.17083 v -24.34167 -24.34166 h -6.08542 -6.08542 v 24.34166 24.34167 h -6.08541 -6.08542 z"
         id="path2233" /><path
         style="fill:#cc00cc;stroke-width:0.264583"
         d="m 48.448956,42.628126 v -6.085417 h 3.042709 3.042708 v -3.042708 -3.042708 h 3.042709 3.042708 v -3.042709 -3.042708 h 3.042709 3.042708 v -3.042708 -3.042709 h 3.042709 3.042708 V 15.243751 12.201042 H 60.61979 48.448956 V 9.158334 6.1156256 h 21.29896 21.298959 v 6.0854164 6.085417 h -3.042709 -3.042708 v 3.042709 3.042708 h -3.042709 -3.042708 v 3.042708 3.042709 h -3.042709 -3.042708 v 3.042708 3.042708 h -3.042708 -3.042709 v 3.042709 3.042708 h 12.170834 12.170834 v 3.042709 3.042708 H 69.747916 48.448956 Z m 48.683335,0 v -6.085417 h 3.042709 3.04271 v -3.042708 -3.042708 h 3.04271 3.04271 v -3.042709 -3.042708 h -3.04271 -3.04271 V 21.329168 18.286459 H 100.175 97.132291 V 12.201042 6.1156256 h 6.085419 6.08542 v 6.0854164 6.085417 h 3.0427 3.04271 v 3.042709 3.042708 h 3.04271 3.04271 v -3.042708 -3.042709 h 3.04271 3.04271 V 12.201042 6.1156256 h 6.08541 6.08542 v 6.0854164 6.085417 h -3.04271 -3.04271 v 3.042709 3.042708 h -3.04271 -3.0427 v 3.042708 3.042709 h 3.0427 3.04271 v 3.042708 3.042708 h 3.04271 3.04271 v 6.085417 6.085417 h -6.08542 -6.08541 v -6.085417 -6.085417 h -3.04271 -3.04271 v -3.042708 -3.042708 h -3.04271 -3.04271 v 3.042708 3.042708 h -3.04271 -3.0427 v 6.085417 6.085417 h -6.08542 -6.085419 z"
         id="path2231" /><path
         style="fill:#fe0000;stroke-width:0.264583"
         d="M 24.107289,82.183335 V 79.140627 H 12.068747 0.03020477 V 73.05521 66.969793 H 9.0260384 18.021872 v 3.042709 3.042708 h 3.042708 3.042709 v -3.042708 -3.042709 h 39.55521 39.555211 v -3.042708 -3.042708 h 6.08542 6.08541 v 3.042708 3.042708 h 18.25625 18.25625 v 3.042709 3.042708 h 3.04271 3.04271 v -3.042708 -3.042709 h 17.99167 17.99166 v 6.085417 6.085417 H 169.89271 145.81563 V 76.097918 73.05521 h -6.08542 -6.08542 v 3.042708 3.042709 h -6.08541 -6.08542 V 76.097918 73.05521 h -3.04271 -3.04271 v 3.042708 3.042709 h -6.08541 -6.08542 V 76.097918 73.05521 H 100.175 97.132291 v 3.042708 3.042709 H 84.961458 72.790624 V 76.097918 73.05521 h -3.042708 -3.042709 v 3.042708 3.042709 H 57.577082 48.448956 V 76.097918 73.05521 H 45.406248 42.36354 v 3.042708 3.042709 h -6.085417 -6.085417 v 3.042708 3.042709 h -3.042709 -3.042708 z"
         id="path2229" /><path
         style="fill:#000000;stroke-width:0.264583"
         d="M 0.03020477,136.42292 V 79.140627 H 12.068747 24.107289 v 3.042708 3.042709 h 3.042708 3.042709 v -3.042709 -3.042708 h 6.085417 6.085417 V 76.097918 73.05521 h 3.042708 3.042708 v 3.042708 3.042709 h 9.128126 9.128125 V 76.097918 73.05521 h 3.042709 3.042708 v 3.042708 3.042709 H 84.961458 97.132291 V 76.097918 73.05521 h 3.042709 3.04271 v 3.042708 3.042709 h 6.08542 6.08541 V 76.097918 73.05521 h 3.04271 3.04271 v 3.042708 3.042709 h 6.08542 6.08541 V 76.097918 73.05521 h 6.08542 6.08542 v 3.042708 3.042709 h 24.07708 24.07708 v 57.282293 57.28229 H 97 0.03020477 Z M 91.046875,158.25104 V 133.90938 H 72.790624 54.534373 v 6.08541 6.08542 h 6.085417 6.085417 v 12.17083 12.17084 H 54.534373 42.36354 v -6.08542 -6.08542 h -6.085417 -6.085417 v -18.25625 -18.25625 h 6.085417 6.085417 v -6.08541 -6.08542 h 24.341667 24.341668 v -6.08542 -6.085413 H 60.61979 30.192706 v 6.085413 6.08542 h -6.085417 -6.085417 v 6.08542 6.08541 H 11.936455 5.8510383 v 18.25625 18.25625 h 6.0854167 6.085417 v 6.08542 6.08542 h 6.085417 6.085417 v 6.08542 6.08541 H 60.61979 91.046875 Z m 24.341665,0 v -24.34166 h 6.08542 6.08542 v 24.34166 24.34167 h 12.17083 12.17083 v -24.34167 -24.34166 h 6.08542 6.08542 v 24.34166 24.34167 h 12.17083 12.17083 v -24.34167 -24.34166 h -6.08541 -6.08542 v -6.08542 -6.08542 h -36.5125 -36.5125 v 30.42709 30.42708 h 6.08542 6.08541 z M 18.021872,70.012502 V 66.969793 H 9.0260384 0.03020477 V 33.632293 0.29479218 H 97 193.96979 v 33.33750082 33.3375 h -17.99166 -17.99167 v 3.042709 3.042708 h -3.04271 -3.04271 v -3.042708 -3.042709 h -18.25625 -18.25625 v -3.042708 -3.042708 h -6.08541 -6.08542 v 3.042708 3.042708 H 63.662499 24.107289 v 3.042709 3.042708 H 21.06458 18.021872 Z M 91.046875,45.670835 V 42.628126 H 78.876041 66.705207 v -3.042708 -3.042709 h 3.042709 3.042708 v -3.042708 -3.042708 h 3.042708 3.042709 v -3.042709 -3.042708 h 3.042708 3.042709 v -3.042708 -3.042709 h 3.042708 3.042709 V 12.201042 6.1156256 H 69.747916 48.448956 V 9.158334 12.201042 H 60.61979 72.790624 v 3.042709 3.042708 h -3.042708 -3.042709 v 3.042709 3.042708 H 63.662499 60.61979 v 3.042708 3.042709 h -3.042708 -3.042709 v 3.042708 3.042708 h -3.042708 -3.042709 v 6.085417 6.085417 h 21.29896 21.298959 z m 18.256255,-3.042709 v -6.085417 h 3.0427 3.04271 v -3.042708 -3.042708 h 3.04271 3.04271 v 3.042708 3.042708 h 3.04271 3.04271 v 6.085417 6.085417 h 6.08541 6.08542 v -6.085417 -6.085417 h -3.04271 -3.04271 v -3.042708 -3.042708 h -3.04271 -3.0427 v -3.042709 -3.042708 h 3.0427 3.04271 v -3.042708 -3.042709 h 3.04271 3.04271 V 12.201042 6.1156256 h -6.08542 -6.08541 v 6.0854164 6.085417 h -3.04271 -3.04271 v 3.042709 3.042708 h -3.04271 -3.04271 v -3.042708 -3.042709 h -3.04271 -3.0427 V 12.201042 6.1156256 h -6.08542 -6.085419 v 6.0854164 6.085417 h 3.042709 3.04271 v 3.042709 3.042708 h 3.04271 3.04271 v 3.042708 3.042709 h -3.04271 -3.04271 v 3.042708 3.042708 H 100.175 97.132291 v 6.085417 6.085417 h 6.085419 6.08542 z"
         id="path2227" /></g></g></svg>
